<svg width="22" height="22" viewBox="0 0 22 22" fill="none" xmlns="http://www.w3.org/2000/svg">
<path fill-rule="evenodd" clip-rule="evenodd" d="M15.2142 4.23047H18.396L20.8446 19.9998L21.1551 21.9998H19.1311H2.02592H0.00195312L0.3125 19.9998L2.76106 4.23047H5.94477C6.15859 1.85864 8.15198 0 10.5795 0C13.007 0 15.0004 1.85864 15.2142 4.23047ZM13.2332 6.23047V8.03869C13.2332 8.18239 13.2217 8.32343 13.1998 8.46094H15.2143C15.2268 8.32186 15.2332 8.18102 15.2332 8.03869V6.23047H16.6826L18.8206 19.9998H2.33647L4.47448 6.23047H5.92578V8.03869C5.92578 8.18102 5.93217 8.32186 5.94468 8.46094H7.95919C7.9372 8.32343 7.92578 8.18239 7.92578 8.03869V6.23047H13.2332ZM7.95935 4.23047C8.16201 2.96603 9.25793 2 10.5795 2C11.901 2 12.9969 2.96603 13.1996 4.23047H7.95935Z" fill="#181818"/>
</svg>
