<svg width="1366" height="797" viewBox="0 0 1366 797" fill="none" xmlns="http://www.w3.org/2000/svg">
<path d="M1252.5 795.5C1281.5 787 1426.02 650.774 1332.46 574.171C1306.27 552.157 1262.35 541.027 1230.14 541.027C1214.22 541.027 1200.68 540.576 1189.07 555.527C1176.91 571.192 1161.13 589.241 1158.6 610C1154.19 646.206 1201.31 671.5 1224.28 671.5C1250.28 671.5 1258.73 661 1266.16 647.397C1273.59 633.795 1289.13 585.5 1234.92 585.5C1180.72 585.5 1137.5 487 1168 499.5C1198.5 512 1124.62 514.312 1087 486.5C1049.38 458.688 1025.5 450 965.5 486.5C905.5 523 933.5 617.5 831 572.5C728.5 527.5 580.5 634 670 671.5C759.5 709 629.416 761.658 519.958 678.079C410.5 594.5 415.5 628 303 655.5C190.5 683 245.599 548.578 215.181 539.5C185.958 530.778 110.332 563.104 89.0433 538.5C58.0203 502.646 122.5 472 101.692 424C80.8833 376 63.5 418 19.5 368C-24.5 318 40.208 271.561 10.0172 247.5C-20.1737 223.439 43.7518 211.891 55.986 203.717C71.8945 193.088 102.313 178.305 122.155 184.038C130.565 186.468 140.567 202.291 119.317 208.896C98.0665 215.5 102.939 235.58 74.2085 242.04C45.4776 248.5 46.1567 228.585 55.6873 207.342C63.4008 190.149 74.2085 171 99.7499 174.371C125.291 177.741 130.521 153.158 140.527 167.466C165.628 203.36 178.201 303 160.093 323.864C141.986 344.728 120.707 330.438 113.641 324.209C102.153 314.083 93.096 288.649 101.692 273.803C110.287 258.957 98.4056 245.532 98.4056 230.647C98.4056 213.092 94.7999 173.6 107.069 161.942C148.449 122.619 162.501 80.5 279.5 102C396.5 123.5 662.203 20.3097 664.5 2" stroke="url(#paint0_linear_51_167)" stroke-width="3" stroke-linecap="round"/>
<defs>
<linearGradient id="paint0_linear_51_167" x1="46.3829" y1="-177.142" x2="1213.97" y2="836.324" gradientUnits="userSpaceOnUse">
<stop stop-color="#735B4C"/>
<stop offset="1" stop-color="#D6B9AF"/>
</linearGradient>
</defs>
</svg>
