<svg width="370" height="6371" viewBox="0 0 370 6371" fill="none" xmlns="http://www.w3.org/2000/svg">
<path d="M30.5011 1.46741C-23.6603 2.32676 160.894 48.0937 127.501 56C94.107 63.9063 99.9754 41.086 169.501 32C205.557 27.288 231.665 23.755 220.5 47C209.335 70.245 361 42.3099 321 37C281 31.6901 381.5 82.5 347.5 95.5C313.5 108.5 300.5 168 325.5 153C350.5 138 370.625 197.065 355.69 212C348.749 218.94 315.744 196.518 291 221.5C266.256 246.482 185.568 220.274 204.244 210.518C222.92 200.763 180.391 299.873 94.0002 314.5C83.5623 311.47 130.462 303.235 101.5 292.881C72.5392 282.528 124.696 270.976 125.848 244.238C127 217.5 142.838 233.629 155 235.5C165.275 237.081 175.303 250.302 180.029 257.953C186.598 268.59 189.891 280.444 190.848 292.881C192.002 307.891 157.201 304.498 149.105 302.423C131.191 297.829 127.975 293.493 125.848 278C125.026 272.008 131.678 262.541 137.5 257.953C146.446 250.905 164 225 169.501 233C175.001 241 183 237.621 183 246.5C183 257.627 135.001 250 169.501 276C204.001 302 159.707 293.349 153.45 304.126C143.258 321.679 192.449 346.309 175.94 358.5C155.079 373.905 229.354 410.307 149.105 407.5C68.8565 404.693 100.983 489.367 59 495C17.0167 500.633 52.714 501.937 22.5 525.446C-7.71407 548.955 105.891 526.492 121.196 518.246C136.501 510 111.001 505.5 125.848 498C143.699 495.972 175.357 517.663 191.153 508.089C218.79 491.339 226.157 463.734 255.027 468.5C273.175 471.496 278.171 495.619 284.849 505.546M284.849 505.546C288.794 511.411 293.325 512.322 301.501 501C307.021 493.355 298.267 496.46 284.849 505.546ZM284.849 505.546C244.754 532.697 163.007 613.257 296.001 620C473.501 629 220.5 786.5 155 779.5C137.665 777.648 129.33 775.55 126.381 773.559M126.381 773.559C118.188 768.028 151.573 763.324 149 767C147.931 768.527 138.531 770.628 126.381 773.559ZM126.381 773.559C98.7399 780.229 56.8675 791.2 66.5004 809.5C66.5004 809.5 76.5027 821.805 82.4996 830C172.675 953.235 52.3625 1181.14 139.671 1216.82C226.98 1252.5 142.24 1101.15 330.5 1310C379.62 1364.49 302.47 1380 360.5 1507.5C400.632 1595.67 286.381 1716.98 226.98 1757.77M226.98 1757.77C224.984 1730.5 219.189 1719.08 198.795 1754.21C184.905 1778.13 200.487 1775.96 226.98 1757.77ZM226.98 1757.77C230.056 1799.78 224.11 1879.41 248.663 1884.32C289.148 1892.4 309.108 1775.87 330.5 1959C351.892 2142.13 132.338 1832.85 72.5001 1924.5C58.0593 1946.62 45.9002 1959.63 36.17 1966.69M36.17 1966.69C5.58178 1988.86 -1.0013 1952.1 21.0001 1954C24.6036 1954.31 29.8982 1958.88 36.17 1966.69ZM36.17 1966.69C80.3719 2021.74 173.112 2238.02 64.5003 2262.5C-59.5229 2290.46 122 2424.5 194.243 2472.96C266.486 2521.43 262.446 2655.5 273.005 2677C283.565 2698.5 389.824 2761.5 331.824 2835C273.824 2908.5 328.086 2943.82 303.955 2960.91C279.824 2978 290.256 2985.92 283.565 2998.41C275.132 3014.16 240.518 2974.13 235.259 3014.31C230 3054.5 212 3125.5 131.5 3141.5C51 3157.5 76.0952 3224.5 108.548 3247C141 3269.5 77.3553 3307 69.7089 3322C62.0625 3337 71.177 3337.45 78.8235 3340C86.4699 3342.55 89.8565 3349.74 92.8235 3353C95.7904 3356.26 102.517 3357.31 108.548 3357.31C122.21 3357.31 135.149 3354.27 147.872 3349.05C159.717 3344.2 166.931 3337.76 181.127 3329.88C195.323 3322 235.416 3314.38 261.961 3331.09C275.858 3339.84 289.633 3352.46 279.924 3368.23C270.214 3384 264.873 3395.18 270.699 3419.45C276.525 3443.72 242.5 3541.5 279.924 3566C317.347 3590.5 335.642 3694.1 291.818 3700.41C255.076 3717.7 242.016 3725.08 176.272 3740.08C134.77 3749.55 99.7298 3816.57 81.9057 3847.73M81.9057 3847.73C71.4947 3865.93 66.9574 3871.89 70.4371 3847C73.1287 3827.75 77.8114 3832.07 81.9057 3847.73ZM81.9057 3847.73C92.1666 3886.97 98.732 3997.43 61 3986.5C8.21212 3971.21 3.81994 4097.21 46.0005 4126C88.181 4154.79 295 4242.5 322.159 4251.45C349.317 4260.4 394.001 4399 327.501 4335.5C261.001 4272 99.7674 4908.16 172.501 4875.43C245.234 4842.7 76.9591 4998.13 224.908 4960.94C275.871 4948.13 306.821 4929.39 324.034 4911.9M324.034 4911.9C356.792 4878.64 339.797 4849.94 316.297 4875.43C310.347 4881.88 316.665 4895.15 324.034 4911.9ZM324.034 4911.9C337.952 4943.54 355.617 4987.61 301.466 5021.65C218.641 5073.72 313.001 5134 362.5 5125C412 5116 139.026 5324.3 149.694 5380C160.361 5435.7 314.672 5375.34 295.799 5414.45M295.799 5414.45C294.679 5416.77 292.949 5419.44 290.543 5422.51C247.591 5477.25 232.369 5437.31 242.03 5422.51C245.548 5417.12 269.633 5412.34 295.799 5414.45ZM295.799 5414.45C341.491 5418.14 393.532 5442.84 353.5 5522C290.543 5646.5 207 5624 116.5 5610C26 5596 -44.145 5684.98 56.4275 5693.98C138.446 5701.32 54.1503 5937.79 21.8831 5996.85M321.595 6124.5C336.035 6083.73 380.813 5995.42 315.5 6051C221.514 6130.97 149.009 6035.14 96.5 6051C61.0001 6061.73 35.564 6013.38 21.8831 5996.85M321.595 6124.5C315.255 6142.39 314.763 6151.13 332 6134.5C344.786 6122.17 338.865 6119.74 321.595 6124.5ZM321.595 6124.5C262.55 6140.75 70.8465 6240.94 40.4999 6316C20.6973 6364.98 -2.02723 6370.14 -14.8509 6367.31M21.8831 5996.85C14.5835 6010.22 9.94654 6014.5 10.5 6005C11.4718 5988.32 15.3281 5988.93 21.8831 5996.85ZM-14.8509 6367.31C-26.7186 6364.69 -30.1065 6355.22 -14.8509 6367.31ZM-14.8509 6367.31C-13.9404 6368.03 -12.9636 6368.83 -11.9182 6369.71" stroke="url(#paint0_linear_409_22)" stroke-width="1.8" stroke-linecap="round"/>
<defs>
<linearGradient id="paint0_linear_409_22" x1="186.004" y1="8" x2="186.004" y2="899" gradientUnits="userSpaceOnUse">
<stop stop-color="#735B4C"/>
<stop offset="0.477083" stop-color="#D6B9AF"/>
</linearGradient>
</defs>
</svg>
