<svg width="1518" height="8090" viewBox="0 0 1518 8090" fill="none" xmlns="http://www.w3.org/2000/svg">
<path d="M1205 21C1127.21 26.826 990-13.1657 1025 80.6671 1040.57 122.401 1071.07 148.469 1094.56 157.411 1086.65 109.009 1084.63 79.4171 1107 108 1142.26 153.05 1123.87 168.575 1094.56 157.411 1109.1 246.408 1143.56 399 1083 370.5 1079.34 368.779 1076.07 366.985 1073.15 365.137 1011.31 326.004 1108.12 262.982 1073.15 365.137 1067.56 381.454 1058.62 401.985 1045.12 427.5 992.09 527.776 816.5 308.5 762 341.201 707.5 373.901 657.5 260.5 582 313 506.5 365.5 511.074 506.5 415 427.5 318.927 348.5 288 539 284.927 576.5 281.854 614 586.532 548 680.766 588 775 628 643.283 614.691 1033.5 854.259 1311.82 1025.13 977.174 1222.83 814.801 1272.52 749.521 1292.49 712.087 1288.55 753.525 1249.32 811.347 1194.58 816.457 1224.69 814.801 1272.52 812.937 1326.35 802.503 1402.63 848.995 1405.68 936.797 1411.46 846.08 1470.61 845.867 1506.18 844.449 1744.03 571.937 1502.27 703.663 1664.02 793.274 1774.06 544.344 1842.22 509.868 1759.31 508.864 1756.9 508.018 1754.62 507.316 1752.48 491.829 1705.17 545.99 1722.14 507.316 1752.48 487.519 1768.01 443.395 1787.05 353.148 1802.76 78.6088 1850.58 549.791 2005.53 667.706 2142.66 738.368 2224.84 727.5 2266.33 844 2357 960.5 2447.67 1180 2567 1140.5 2705 1101 2843 827.5 2705 762 2868 696.5 3031 561.224 3196.64 436.5 3072 311.776 2947.36 482.512 3358.97 520.337 3370.9 591.841 3393.43 694.847 3366.35 771.143 3366.35 847.565 3366.35 838.736 3424.76 979.887 3397.83 1121.04 3370.89 1092.43 3497.46 1079.39 3553.63 1071.19 3588.96 1027.93 3644.69 1007 3676.37L787.126 3877.51C710.204 3902.76 553.505 3823 550.141 3940.24 546.776 4057.49 501.226 3997.71 330.277 3996.79 159.329 3995.87 249.978 4285.42 244.5 4316.5 244.5 4316.5 324.767 4546.43 373.532 4592.96 422.296 4639.5 495.531 4809.46 551.031 4663.47 606.531 4517.47 1040.44 4814.84 768.31 4946.58 623.212 5016.82 503.581 5035.09 422.296 5030.86 309.873 5025 270.801 4976.09 339.153 4962.06 359.027 4957.98 386.673 4990.77 422.296 5030.86 487.879 5104.66 580.496 5203.2 701.422 5141.96 888.031 5047.46 987.469 5386.96 936.735 5434.23 886 5481.5 517.958 5731.72 566.5 5863 615.042 5994.28 1257.5 5926.25 1073 6048.04 1056.65 6058.84 1041.5 6067.98 1027.5 6075.65 883.49 6154.53 860.678 6078.06 898.5 6048.04 912.346 6037.06 964.761 6044.4 1027.5 6075.65 1152.8 6138.06 1319.26 6295.84 1301.8 6593.45 1275.61 7040.07 936.922 6477.39 450 6503.86-36.9211 6530.33 403.974 6894.96 140.276 6961.24-123.421 7027.51 50.6735 7246.72 165.238 7140.67 201.165 7107.41 223.814 7161.18 245.645 7194 1158.24 7660.35 218.348 7790.97 165.238 7505.73 129.857 7315.7 195.746 7224.33 245.645 7194 1312.25 7554.87 1317.51 7544.44 1309.5 7535.19 1264.64 7483.33 1266.57 7521.59 1296.32 7565.79 1317.91 7597.86 1354.15 7633.05 1397.79 7639.21 1501.58 7653.84 1354.96 8018.2 1516 8088.5" stroke="url(#paint0_linear_411_28)" stroke-width="3" stroke-linecap="round"/>
<defs>
<linearGradient id="paint0_linear_411_28" x1="-15.6171" y1="-971.142" x2="1151.97" y2="42.324" gradientUnits="userSpaceOnUse">
<stop stop-color="#735B4C"/>
<stop offset="1" stop-color="#D6B9AF"/>
</linearGradient>
</defs>
</svg>
