<svg width="1365" height="925" viewBox="0 0 1365 925" fill="none" xmlns="http://www.w3.org/2000/svg">
<path d="M1143.32 437.285C1005.24 531.854 65.3479 662.469 12.2378 377.228C-23.1433 187.205 42.7463 95.8285 92.6447 65.5025M1143.32 437.285C1159.25 426.375 1164.51 415.944 1156.5 406.687C1111.64 354.826 1113.57 393.088 1143.32 437.285ZM1143.32 437.285C1164.91 469.357 1201.15 504.553 1244.79 510.708C1348.58 525.344 1201.96 889.699 1363 960M12.2378 12.1685C48.1647 -21.0886 70.8141 32.6821 92.6447 65.5025M92.6447 65.5025C106.335 86.0848 119.703 98.4277 135.822 75.9009C152.665 52.3624 126.29 45.0544 92.6447 65.5025Z" stroke="url(#paint0_linear_430_59)" stroke-width="3" stroke-linecap="round"/>
<defs>
<linearGradient id="paint0_linear_430_59" x1="-168.617" y1="-8099.64" x2="998.967" y2="-7086.18" gradientUnits="userSpaceOnUse">
<stop stop-color="#735B4C"/>
<stop offset="1" stop-color="#D6B9AF"/>
</linearGradient>
</defs>
</svg>
