<svg width="346" height="537" viewBox="0 0 346 537" fill="none" xmlns="http://www.w3.org/2000/svg">
<path d="M14.5011 1.46741C-39.6604 2.32676 144.894 48.0937 111.5 56C78.107 63.9063 83.9753 41.086 153.501 32C189.557 27.288 215.665 23.755 204.5 47C193.335 70.245 345 42.3099 305 37C265 31.6901 365.5 82.5 331.5 95.5C297.5 108.5 284.5 168 309.5 153C334.5 138 354.625 197.065 339.689 212C332.749 218.94 299.744 196.518 275 221.5C250.256 246.482 169.568 220.274 188.244 210.518C206.92 200.763 164.391 299.873 78.0001 314.5C67.5622 311.47 114.462 303.235 85.5004 292.881C56.5392 282.528 108.696 270.976 109.848 244.238C111 217.5 126.838 233.629 139 235.5C149.275 237.081 159.303 250.302 164.029 257.953C170.598 268.59 173.891 280.444 174.848 292.881C176.002 307.891 141.201 304.498 133.105 302.423C115.191 297.829 111.975 293.493 109.848 278C109.026 272.008 115.678 262.541 121.5 257.953C130.446 250.905 148 225 153.501 233C159.001 241 167 237.621 167 246.5C167 257.627 119.001 250 153.501 276C188.001 302 143.707 293.349 137.45 304.126C127.258 321.679 176.449 346.309 159.94 358.5C139.079 373.905 213.353 410.307 133.105 407.5C52.8564 404.693 84.9831 489.367 42.9999 495C1.01667 500.633 36.7139 501.937 6.49988 525.446C-23.7141 548.955 89.8907 526.492 105.196 518.246C120.501 510 95.0006 505.5 109.848 498C127.699 495.972 159.356 517.663 175.153 508.089C202.79 491.339 210.157 463.734 239.027 468.5" stroke="url(#paint0_linear_406_19)" stroke-width="1.8" stroke-linecap="round"/>
<defs>
<linearGradient id="paint0_linear_406_19" x1="170.004" y1="8" x2="170.004" y2="899" gradientUnits="userSpaceOnUse">
<stop stop-color="#735B4C"/>
<stop offset="0.477083" stop-color="#D6B9AF"/>
</linearGradient>
</defs>
</svg>
