<svg width="364" height="5618" viewBox="0 0 364 5618" fill="none" xmlns="http://www.w3.org/2000/svg">
<path d="M249.026 1.50012C267.175 4.4964 272.171 28.6188 278.849 38.5464M278.849 38.5464C282.794 44.4105 287.325 45.3217 295.5 34.0001C301.02 26.3555 292.267 29.4603 278.849 38.5464ZM278.849 38.5464C238.754 65.6973 157.007 146.257 290 153C467.5 162 214.499 319.5 148.999 312.5C131.664 310.648 123.33 308.55 120.381 306.559M120.381 306.559C112.188 301.028 145.572 296.324 142.999 300C141.931 301.527 132.531 303.628 120.381 306.559ZM120.381 306.559C92.7395 313.229 50.8671 324.2 60.5 342.5C60.5 342.5 70.5024 354.805 76.4993 363C166.675 486.235 46.3622 714.143 133.671 749.821C220.98 785.5 136.24 634.154 324.5 843C373.62 897.491 296.469 913 354.5 1040.5C394.631 1128.67 280.381 1249.98 220.98 1290.77M220.98 1290.77C218.984 1263.5 213.189 1252.08 192.795 1287.21C178.904 1311.13 194.487 1308.96 220.98 1290.77ZM220.98 1290.77C224.055 1332.78 218.11 1412.41 242.662 1417.32C283.147 1425.4 303.108 1308.87 324.5 1492C345.891 1675.13 126.337 1365.85 66.4997 1457.5C52.0589 1479.62 39.8998 1492.63 30.1697 1499.69M30.1697 1499.69C-0.418589 1521.86 -7.00167 1485.1 14.9997 1487C18.6032 1487.31 23.8978 1491.88 30.1697 1499.69ZM30.1697 1499.69C74.3716 1554.74 167.112 1771.02 58.4999 1795.5C-65.5233 1823.46 116 1957.5 188.243 2005.96C260.486 2054.43 256.446 2188.5 267.005 2210C277.564 2231.5 383.823 2294.5 325.823 2368C267.823 2441.5 322.086 2476.82 297.955 2493.91C273.823 2511 284.255 2518.92 277.564 2531.41C269.131 2547.16 234.517 2507.13 229.258 2547.31C224 2587.5 206 2658.5 125.5 2674.5C44.9996 2690.5 70.0948 2757.5 102.547 2780C135 2802.5 71.3549 2840 63.7085 2855C56.0621 2870 65.1767 2870.45 72.8231 2873C80.4695 2875.55 83.8561 2882.74 86.8231 2886C89.7901 2889.26 96.517 2890.31 102.547 2890.31C116.209 2890.31 129.148 2887.27 141.871 2882.05C153.717 2877.2 160.931 2870.76 175.127 2862.88C189.323 2855 229.416 2847.38 255.96 2864.09C269.858 2872.84 283.633 2885.46 273.923 2901.23C264.213 2917 258.873 2928.18 264.699 2952.45C270.525 2976.72 236.5 3074.5 273.923 3099C311.347 3123.5 329.642 3227.1 285.817 3233.41C249.076 3250.7 236.015 3258.08 170.272 3273.08C128.77 3282.55 93.7294 3349.57 75.9053 3380.73M75.9053 3380.73C65.4943 3398.93 60.957 3404.89 64.4367 3380C67.1283 3360.75 71.811 3365.07 75.9053 3380.73ZM75.9053 3380.73C86.1662 3419.97 92.7317 3530.43 54.9996 3519.5C2.21175 3504.21 -2.18043 3630.21 40.0001 3659C82.1806 3687.79 289 3775.5 316.158 3784.45C343.317 3793.4 388 3932 321.5 3868.5C255 3805 93.7671 4441.16 166.5 4408.43C239.233 4375.7 70.9587 4531.13 218.907 4493.94C269.87 4481.13 300.821 4462.39 318.034 4444.9M318.034 4444.9C350.791 4411.64 333.796 4382.94 310.296 4408.43C304.347 4414.88 310.665 4428.15 318.034 4444.9ZM318.034 4444.9C331.951 4476.54 349.617 4520.61 295.465 4554.65C212.641 4606.72 307 4667 356.5 4658C406 4649 133.026 4857.3 143.693 4913C154.361 4968.7 308.671 4908.34 289.799 4947.45M289.799 4947.45C288.679 4949.77 286.949 4952.44 284.543 4955.51C241.591 5010.25 226.369 4970.31 236.03 4955.51C239.548 4950.12 263.633 4945.34 289.799 4947.45ZM289.799 4947.45C335.491 4951.14 387.532 4975.84 347.5 5055C284.543 5179.5 201 5157 110.5 5143C19.9996 5129 -50.1454 5217.98 50.4271 5226.98C132.445 5234.32 48.15 5470.79 15.8827 5529.85M15.8827 5529.85C8.58313 5543.22 3.94617 5547.5 4.49963 5538C5.47141 5521.32 9.32778 5521.93 15.8827 5529.85ZM15.8827 5529.85C29.5636 5546.38 54.9997 5594.73 90.4996 5584C143.009 5568.14 215.513 5663.97 309.5 5584C345.97 5552.97 343.611 5579.51 334.415 5609" stroke="url(#paint0_linear_409_22)" stroke-width="1.8" stroke-linecap="round"/>
<defs>
<linearGradient id="paint0_linear_409_22" x1="180.004" y1="-459" x2="180.004" y2="432" gradientUnits="userSpaceOnUse">
<stop stop-color="#735B4C"/>
<stop offset="0.477083" stop-color="#D6B9AF"/>
</linearGradient>
</defs>
</svg>
