<svg width="363" height="1291" viewBox="0 0 363 1291" fill="none" xmlns="http://www.w3.org/2000/svg">
<path d="M132.671 33.8213C132.671 33.8213 135.24 -81.8463 323.5 127C372.62 181.491 295.47 197 353.5 324.5C411.53 452 146.76 648.777 191.795 571.21C243.616 481.956 201.177 693.233 241.662 701.318C282.148 709.404 302.108 592.867 323.5 776C344.892 959.134 125.338 649.847 65.5 741.5C5.66225 833.153 -15 768.5 14 771C43 773.5 181.523 1051.54 57.5002 1079.5C-66.523 1107.46 187.243 1289.96 187.243 1289.96" stroke="url(#paint0_linear_152_104)" stroke-width="1.8" stroke-linecap="round"/>
<defs>
<linearGradient id="paint0_linear_152_104" x1="104.684" y1="36.9004" x2="241.885" y2="1283.95" gradientUnits="userSpaceOnUse">
<stop stop-color="#D6B9AF"/>
<stop offset="1" stop-color="#4A527D"/>
</linearGradient>
</defs>
</svg>
