<svg width="705" height="308" viewBox="0 0 705 308" fill="none" xmlns="http://www.w3.org/2000/svg">
<path d="M258.975 190.746C187.206 199.538 91.557 205.294 24.3934 182.393C4.30359 175.543 -5.98117 160.147 9.97241 145.232C32.3559 124.306 99.2695 121.165 130.628 117.276C193.333 109.499 257.327 100.631 320.505 95.116C344.571 93.0153 413.144 84.8947 425.538 105.855C441.018 132.036 441.838 166.149 414.241 187.848C386.056 210.011 356.859 231.609 328.677 253.818C313.245 265.979 268.591 276.541 246.717 271.887C220.132 266.23 229.172 222.769 229.172 208.815C229.172 189.06 221.673 159.96 230.133 140.459C238.151 121.977 277.536 97.1189 303.2 93.4113C330.45 89.4743 360.198 91.2643 387.803 91.3657C436.875 91.5461 486.365 92.2108 534.897 97.8433C570.125 101.932 636.899 104.702 644.496 135.686C653.08 170.692 621.32 188.565 578.16 203.19C506.32 227.533 427.255 241.715 347.905 241.715C302.198 241.715 256.56 241.708 210.905 239.84C191.051 239.027 122.204 242.804 108.035 227.396C92.6584 210.674 73.8071 182.68 73.4249 162.62C72.5968 119.16 99.0773 90.7844 146.011 65.1143C189.576 41.2864 238.114 21.069 291.182 10.9069C309.149 7.46644 327.599 2.72461 346.463 2.72461C358.759 2.72461 354.58 26.1751 354.635 31.0216C355.252 85.7671 389.245 135.926 389.245 190.576C389.245 207.951 387.218 218.454 366.652 230.123C353.729 237.455 346.801 245.681 337.329 255.011C326.731 265.451 303.874 268.028 288.298 273.08C247.173 286.42 206.051 296.876 160.912 301.718C133.07 304.705 58.4278 312.371 39.7759 292.854C14.0309 265.914 7.58807 208.79 45.5443 186.144C92.4362 158.165 153.87 145.57 213.309 139.607C319.955 128.907 386.44 98.1819 431.146 117.276C475.851 136.37 548 99.2069 633 65.1143C718 31.0216 700.592 140.694 700.511 147.619C699.9 200.04 614.8 192.621 577.68 247.17C540.56 301.718 414.241 313.846 356.077 278.535C297.912 243.224 224.685 278.535 158.99 278.535C145.662 278.535 135.187 279.136 126.302 271.035C104.086 250.776 146.521 200.122 112.362 191.257C78.2025 182.393 108.259 163.358 114.044 152.221C123.764 133.509 154.861 119.493 177.737 110.458C243.197 84.6023 311.005 64.6208 384.438 54.2046C431.313 47.5555 483.345 51.1172 531.052 51.4772C556.792 51.6714 562.297 54.5419 562.297 72.2738C562.297 100.303 555.701 124.468 532.013 147.619" stroke="url(#paint0_linear_422_43)" stroke-width="4" stroke-linecap="round"/>
<defs>
<linearGradient id="paint0_linear_422_43" x1="624.5" y1="-1063" x2="-315" y2="710.999" gradientUnits="userSpaceOnUse">
<stop stop-color="#4A527D"/>
<stop offset="0.23506" stop-color="#D6B9AF"/>
</linearGradient>
</defs>
</svg>
