<svg width="308" height="285" viewBox="0 0 308 285" fill="none" xmlns="http://www.w3.org/2000/svg">
<path d="M134.853 71.8519C126.476 69.5673 107.587 64.042 100.141 71.4878C80.7093 90.9194 58.6864 119.997 55.2337 148.194C51.9944 174.648 57.139 208.976 82.0567 223.444C101.67 234.833 133.034 240.714 155.243 242.864C168.151 244.113 206.046 234.832 207.797 219.075C210.597 193.877 220.841 167.149 213.744 141.883C208.239 122.284 202.491 107.084 188.013 92.6064C172.332 76.9251 154.741 74.9357 133.397 70.7596C103.107 64.8333 79.5866 68.0645 52.6849 83.4999C24.2344 99.8239 40.6692 135.033 40.6692 167.492C40.6692 194.067 4.53419 224.867 25.6191 243.349C49.7531 264.504 90.6419 268.214 119.318 257.185C138.752 249.711 157.167 239.674 176.362 231.576C188.166 226.596 194.024 222.669 198.451 210.579C203.433 196.975 203.42 182.841 201.85 168.585C198.418 137.427 192.984 106.547 183.765 76.5854C177.836 57.3147 172.099 44.385 159.127 29.2507C149.951 18.5454 131.29 24.6901 126.964 36.0475C119.209 56.4034 120.64 79.022 120.289 100.374C119.908 123.518 113.351 144.82 111.671 167.492C109.342 198.935 154.979 220.911 178.425 233.639C193.801 241.987 205.8 250.794 222.483 255.972C233.794 259.482 255.081 222.094 258.773 213.006C266.13 194.895 283.66 129.84 251.005 122.221C221.306 115.291 191.403 127.909 164.225 137.999C131.876 150.009 100.194 169.626 78.9011 197.471C63.8509 217.152 73.9863 235.798 88.2467 254.515C99.7931 269.67 118.041 276.66 135.581 282.673C156.101 289.709 161.496 231.152 183.765 228.116C196.575 226.369 239.809 267.658 251.005 261.5C264.722 253.955 298.807 215.939 303.323 201C317.383 154.494 279.845 161.817 276.25 113.482C275.306 100.786 275.399 80.8797 267.39 69.6672C259.598 58.7578 249.607 47.5498 240.688 37.5039C223.84 18.5255 136.337 11.4071 111.671 2.49988C70.5458 -12.351 160.826 89.1064 88.2467 92.6064C15.6668 96.1063 53.3238 108.749 16.8238 167.492C-19.6762 226.236 14.0841 231.773 46.495 232.304C71.3189 232.711 99.2899 235.75 123.687 230.12C133.099 227.948 141.922 224.102 146.505 215.191C156.489 195.777 160.143 172.042 162.89 150.622C163.82 143.368 166.763 125.022 155.243 135.329C135.172 153.287 128.5 182.871 122.473 208.394" stroke="url(#paint0_linear_186_18)" stroke-width="1.8" stroke-linecap="round"/>
<defs>
<linearGradient id="paint0_linear_186_18" x1="165.547" y1="-260" x2="165.547" y2="1189" gradientUnits="userSpaceOnUse">
<stop stop-color="#4A527D"/>
<stop offset="0.520833" stop-color="#D6B9AF"/>
</linearGradient>
</defs>
</svg>
