<svg width="744" height="487" viewBox="0 0 744 487" fill="none" xmlns="http://www.w3.org/2000/svg">
<path d="M244.675 240.187C136.697 270.623 144.775 375.26 185.5 351.5C226.225 327.74 339.492 388.595 398.104 387.363C470.598 385.839 549.658 378.179 604.084 341.508C619.181 331.336 636.138 323.128 639.175 307.586C642.401 291.08 644.628 272.539 641.819 255.935C634.536 212.893 568.433 185.581 524.528 162.351C487.985 143.016 449.478 122.358 403.632 115.132C336.512 104.554 310.666 171.201 321.672 205.819C335.317 248.733 379.389 278.38 426.946 303.836C444.559 313.263 453.824 315.781 461.316 329.064M461.316 329.064C464.427 334.58 490.285 297.56 491.119 296.335C506.974 273.062 524.966 249.804 531.258 224.059C540.734 185.284 546.691 143.288 551.207 104.052C554.889 72.0604 555.618 6.6554 491.119 4.16025C445.24 2.38539 384.356 -1.00628 343.304 15.111C302.371 31.1817 256.778 56.8336 224.288 97.9153C191.798 138.997 174.331 223.479 205.583 275.198C224.645 306.742 256.174 334.341 278.169 364.862C296.581 390.411 317.37 408.04 346.429 427.592C389.229 456.391 485.547 452.603 537.747 441.911C600.762 429.005 633.897 401.882 683.399 375.43C707.07 362.782 731.197 354.232 740.122 332.473C745.852 318.504 733.785 299.955 717.529 291.903C699.347 282.897 677.646 278.161 658.884 269.743C646.374 264.13 638.953 256.472 627.638 250.31C601.664 236.165 557.866 227.742 525.73 224.399C421.097 213.515 317.963 212.808 212.313 212.808C183.845 212.808 169.204 216.129 144.775 226.615C114.958 239.415 107.886 251.391 97.6659 274.345C88.6672 294.556 88.4543 316.488 77.7169 336.565C70.5952 349.881 58.4889 360.305 58.4889 375.26C58.4889 390.762 157.162 387.439 166.647 387.533C272.263 388.581 380.416 392.01 485.832 386.17C569.025 381.56 610.732 344.014 629.321 287.982C640.163 255.302 640.5 221.384 653.596 188.602C663.843 162.952 664.171 139.827 664.171 113.257C664.171 98.3769 667.81 85.4927 650.952 74.7323C616.852 52.9659 554.058 49.2552 510.347 47.458C478.829 46.1621 446.726 46.832 415.169 47.1171C396.763 47.2834 371.302 46.143 357.485 56.8335C338.042 71.8761 320.807 106.864 318.548 126.894C311.33 190.884 335.372 252.54 335.372 316.109C335.372 365.886 283.881 363.707 321.672 388.254C359.464 412.801 449.338 512.148 502.203 477.714C555.068 443.28 341.167 332.984 411.804 341.508C482.44 350.032 436.8 349.084 461.316 329.064ZM461.316 329.064C485.832 309.044 727.143 340.315 693.013 316.109C658.884 291.903 624.467 299.827 600.238 292.926C557.949 280.879 513.426 273.174 472.132 259.344C428.442 244.712 379.786 230.658 343.304 207.864C308.875 186.353 266.604 171.657 233.224 149.736C218.233 139.892 196.228 124.397 175.299 121.098C152.375 117.485 127.337 115.435 105.598 123.144C58.176 139.96 12.6969 151.692 4.89048 188.602C-9.1389 254.936 29.347 341.508 89.0129 360.43C148.679 379.351 101.18 393.407 164.483 424.524C227.787 455.641 332.742 443.022 409.16 428.615C504.038 410.728 560.706 347.163 622.351 298.381C669.047 261.427 694.088 209.979 702.147 160.987C705.152 142.719 717.501 111.275 693.013 97.9153C659.458 79.6085 593.701 66.1023 550.726 65.5272C496.296 64.7988 457.894 82.8234 411.804 100.984C341.86 128.543 348.351 181.757 348.351 232.241" stroke="url(#paint0_linear_80_144)" stroke-width="4" stroke-linecap="round"/>
<defs>
<linearGradient id="paint0_linear_80_144" x1="1059.5" y1="-288" x2="120" y2="1486" gradientUnits="userSpaceOnUse">
<stop stop-color="#4A527D"/>
<stop offset="0.23506" stop-color="#D6B9AF"/>
</linearGradient>
</defs>
</svg>
