<svg width="323" height="282" viewBox="0 0 323 282" fill="none" xmlns="http://www.w3.org/2000/svg">
<path d="M115.6 178.314C99.61 181.971 72.5177 189.38 58.1915 177.1C42.5259 163.672 33.1036 139.415 35.9806 119.085C38.8944 98.4936 57.8402 88.9945 74.3338 79.275C105.543 60.884 144.106 38.1849 182.111 41.8927C210.351 44.6478 240.821 77.1865 255.662 98.937C276.953 130.139 281.041 166.077 264.522 200.767C261.656 206.786 259.179 214.892 252.385 217.395C233.162 224.477 209.334 224.678 189.393 225.891C157.175 227.851 125.12 226.218 93.5104 219.58C83.5965 217.498 76.4466 212.404 72.1491 203.195C65.3456 188.616 58.8018 160.86 65.1096 145.301C73.9036 123.609 109.63 109.355 129.193 101.365C154.481 91.0357 185.453 82.4565 213.182 85.829C231.771 88.0897 240.149 104.15 243.525 121.027C247.719 141.995 231.626 150.096 215.852 161.322C193.797 177.019 173.26 196.785 143.272 186.324C117.206 177.231 108.752 129.523 105.89 106.948C102.822 82.7402 104.553 43.1708 127.009 28.0564C139.754 19.4776 156.835 21.3787 171.309 23.323C190.33 25.8781 209.827 29.8985 228.718 33.3967C250.94 37.5119 257.06 45.4805 260.517 70.0508C265.954 108.691 267.833 143.787 248.744 178.556C237.074 199.812 226.625 202.932 202.744 208.05C168.88 215.306 134.91 223.56 100.55 216.91C87.368 214.358 73.7469 214.956 60.7403 211.569C52.1769 209.339 44.9983 206.215 36.2233 205.379C28.6935 204.662 30.2534 196.473 31.1257 190.693C32.8143 179.507 39.164 170.845 46.6613 162.535C67.3773 139.574 92.5011 121.007 119.969 106.948C146.719 93.255 175.82 83.814 204.444 74.9056C223.983 68.8246 216.139 79.2201 236.094 74.9056C243.634 73.2754 259.792 59.9972 267.65 62.3549C282.738 66.8812 284.067 85.0996 293.501 98.937C289.949 115.228 339.771 173.823 314.323 186.324C288.876 198.825 277.852 226.82 273.625 230.625C267.202 236.405 267.719 234.773 260.517 238C240.882 246.797 249.651 244.794 228.96 250.894C199.343 259.625 145.319 273.011 175.323 275.41C205.328 277.81 127.009 224.787 83.8234 241.669C40.6381 258.551 45.7091 236.599 37.4371 230.625C27.7153 223.603 23.7983 206.922 21.0519 196.641C9.09334 151.873 -5.7087 151.537 6.32332 106.948C9.85565 93.8571 45.8234 61.5 50.7879 45.8979C55.7523 30.2959 44.2339 10 58.1915 3C72.1492 -4 89.8869 21.2455 104.191 29.7556C139.34 50.6672 173.976 72.9456 199.831 105.006C218.859 128.6 242.5 160.057 248.987 190.329C252.836 208.293 254.437 236.363 246.438 253.321C239.246 268.567 192.323 238 161.823 244.5C131.323 251 91.9855 284.59 69.3234 280C46.6613 275.41 58.1915 253.321 50.7879 241.669C43.3842 230.018 70.1187 160.406 100.55 141.538C137.899 118.382 198.26 122.016 237.214 137.776C248.595 142.381 264.981 147.525 273.625 156.71" stroke="url(#paint0_linear_425_50)" stroke-width="1.8" stroke-linecap="round"/>
<defs>
<linearGradient id="paint0_linear_425_50" x1="154.547" y1="-761" x2="154.547" y2="688" gradientUnits="userSpaceOnUse">
<stop stop-color="#4A527D"/>
<stop offset="0.520833" stop-color="#D6B9AF"/>
</linearGradient>
</defs>
</svg>
